<?xml version="1.0" standalone="no"?>
<!DOCTYPE svg PUBLIC "-//W3C//DTD SVG 20010904//EN"
 "http://www.w3.org/TR/2001/REC-SVG-20010904/DTD/svg10.dtd">
<svg version="1.0" xmlns="http://www.w3.org/2000/svg"
 width="600.000000pt" height="600.000000pt" viewBox="0 0 600.000000 600.000000"
 preserveAspectRatio="xMidYMid meet">
<metadata>
Created by potrace 1.11, written by Peter Selinger 2001-2013
</metadata>
<g transform="translate(0.000000,600.000000) scale(0.100000,-0.100000)"
fill="#000000" stroke="none">
<path d="M2849 4359 c-64 -4 -153 -14 -199 -23 -164 -34 -239 -77 -282 -163
-21 -44 -23 -63 -26 -230 l-4 -183 321 0 321 0 0 -40 0 -40 -437 0 c-241 0
-469 -5 -506 -10 -129 -19 -246 -102 -301 -213 -63 -130 -98 -388 -76 -563 34
-277 107 -427 238 -491 54 -26 66 -28 210 -31 l152 -4 0 180 c0 151 3 188 19
235 37 108 117 196 221 246 l55 26 405 6 c271 4 417 10 442 18 91 29 183 123
210 214 10 31 13 142 13 412 0 355 -1 372 -21 416 -41 88 -128 164 -227 198
-96 33 -338 51 -528 40z m-169 -205 c85 -51 79 -173 -12 -220 -72 -37 -168 24
-168 107 0 101 97 161 180 113z"/>
</g>
</svg>
